<svg width="199" height="199" viewBox="0 0 199 199" fill="none" xmlns="http://www.w3.org/2000/svg">
<g clip-path="url(#clip0)">
<path d="M53.0858 99.8831C52.3887 99.5537 51.7381 99.4596 51.1339 99.4596C50.4833 99.5066 49.8791 99.1301 49.5538 98.5184L47.3696 94.7066C47.0443 94.1419 47.0908 93.389 47.4161 92.8243C47.8808 92.0243 48.1132 91.0831 48.0202 90.0478C47.8343 87.9301 46.1148 86.189 44.0235 86.0007C42.1646 85.8125 40.5381 86.7537 39.7016 88.2125C39.3762 88.7772 38.7721 89.1537 38.1215 89.1537H33.846C33.1953 89.1537 32.5912 88.7772 32.2659 88.2125C31.4294 86.7537 29.7563 85.8125 27.9439 86.0007C25.8526 86.236 24.1796 87.9772 23.9472 90.0949C23.8543 91.1301 24.0866 92.0713 24.5513 92.8713C24.8767 93.436 24.9231 94.1419 24.5978 94.7537L22.4601 98.5654C22.1348 99.1772 21.4841 99.5066 20.787 99.5066C20.4152 99.5066 19.997 99.5066 19.5787 99.6007C17.8128 99.9772 16.4186 101.436 16.1397 103.224C15.675 106.048 17.8128 108.542 20.5547 108.542C20.6011 108.542 20.6476 108.542 20.6476 108.542C21.2982 108.542 21.9489 108.871 22.2742 109.436L24.5049 113.342C24.8302 113.907 24.7837 114.612 24.4584 115.224C23.9937 116.024 23.7613 116.965 23.8543 117.954C24.0401 120.071 25.7596 121.765 27.8045 122.001C29.6169 122.189 31.2899 121.295 32.1265 119.836C32.4518 119.271 33.0559 118.895 33.7065 118.895H38.075C38.7256 118.895 39.3298 119.271 39.6551 119.836C40.4451 121.201 41.9323 122.095 43.6053 122.048C45.9289 122.001 47.9273 120.024 47.9738 117.671C48.0667 115.13 46.0219 113.012 43.5123 113.012C41.7464 113.012 40.2128 114.048 39.4692 115.601C39.1904 116.212 38.5397 116.589 37.8426 116.589H33.8924C33.1953 116.589 32.5912 116.212 32.2659 115.601C31.5688 114.095 29.9887 113.012 28.2227 113.012C28.1298 113.012 28.0368 113.012 27.9904 113.012C27.3397 113.06 26.6891 112.683 26.3638 112.118L24.226 108.354C23.9007 107.742 23.9472 106.989 24.2725 106.424C24.2725 106.377 24.319 106.377 24.319 106.33C24.6443 105.765 25.2484 105.389 25.8991 105.389L30.3605 105.342C31.0576 105.342 31.6617 105.718 31.987 106.33C32.7771 107.695 34.2177 108.589 35.8443 108.589C37.5173 108.589 38.958 107.648 39.748 106.283C40.0733 105.671 40.6775 105.295 41.3746 105.295H46.9513C47.4625 107.224 49.1821 108.589 51.2733 108.589C53.9223 108.589 56.0136 106.283 55.7347 103.554C55.5489 101.907 54.48 100.542 53.0858 99.8831ZM35.8908 99.4596C34.1248 99.4596 32.6377 100.495 31.8941 101.954C31.6152 102.565 30.9646 102.895 30.314 102.895L26.1314 102.942C25.4343 102.942 24.8302 102.565 24.5049 101.954C24.4584 101.86 24.4119 101.765 24.3655 101.671C24.0401 101.107 23.9937 100.448 24.319 99.8831L26.5497 95.9301C26.875 95.3184 27.5256 94.989 28.1762 94.989C28.2227 94.989 28.2692 94.989 28.3621 94.989C30.1281 94.989 31.6152 93.9537 32.3588 92.4478C32.6377 91.836 33.2883 91.4596 33.9389 91.4596H37.9356C38.5862 91.4596 39.2368 91.836 39.5157 92.4478C40.2592 93.9537 41.7464 94.989 43.5123 94.989C43.5588 94.989 43.6518 94.989 43.6982 94.989C44.3953 94.9419 44.9995 95.3184 45.3248 95.9301L47.4161 99.6478C47.7414 100.26 47.7879 100.965 47.4161 101.53C47.1837 101.907 46.9978 102.33 46.9049 102.801H41.4211C40.724 102.801 40.1198 102.377 39.7945 101.765C39.0509 100.448 37.5638 99.4596 35.8908 99.4596Z" fill="url(#paint0_linear)"/>
<path d="M75.9037 98.4706C76.322 98.4706 76.6473 98.4235 76.9261 98.1883C77.205 97.953 77.2979 97.6235 77.2979 97.2471C77.2979 96.8235 77.1585 96.5412 76.8797 96.2588C76.6008 96.0235 76.2755 95.8824 75.9037 95.8824H68.2822C67.8639 95.8824 67.5386 96.0235 67.3062 96.3059C67.0274 96.5883 66.888 96.9177 66.888 97.2941V110.659C66.888 111.082 67.0274 111.412 67.3062 111.647C67.5851 111.929 67.9104 112.071 68.2822 112.071H75.9037C76.322 112.071 76.6473 111.929 76.8797 111.694C77.1585 111.459 77.2979 111.129 77.2979 110.753C77.2979 110.376 77.1585 110.094 76.8797 109.812C76.6008 109.529 76.2755 109.388 75.9037 109.388H69.7228V105.106H74.8813C75.2996 105.106 75.6249 104.965 75.9037 104.729C76.1826 104.494 76.2755 104.165 76.2755 103.788C76.2755 103.365 76.1361 103.082 75.8573 102.8C75.5784 102.565 75.2531 102.424 74.8813 102.424H69.7228V98.4706H75.9037ZM93.7959 99.5059C92.9129 99.5059 92.0764 99.7883 91.3793 100.306C90.6822 100.824 90.1245 101.435 89.7992 102.047C89.288 100.353 88.0332 99.5059 86.1278 99.5059C85.3378 99.5059 84.6407 99.6941 84.0365 100.118C83.3859 100.494 82.8747 100.965 82.4564 101.529V101.153C82.4564 100.729 82.317 100.4 82.0847 100.165C81.8058 99.8824 81.4805 99.7412 81.1087 99.7412C80.6905 99.7412 80.3652 99.8824 80.1328 100.165C79.8539 100.447 79.761 100.776 79.761 101.153V110.706C79.761 111.129 79.9004 111.459 80.1328 111.694C80.4116 111.976 80.7369 112.118 81.1087 112.118C81.527 112.118 81.8523 111.976 82.0847 111.694C82.3635 111.412 82.4564 111.082 82.4564 110.706V104.776C82.4564 103.976 82.6888 103.318 83.1535 102.8C83.6183 102.282 84.3154 102.047 85.1519 102.047C85.9884 102.047 86.5461 102.282 86.8714 102.753C87.1967 103.224 87.3826 103.882 87.3826 104.776V110.706C87.3826 111.129 87.522 111.459 87.7544 111.694C88.0332 111.976 88.3585 112.118 88.7303 112.118C89.1486 112.118 89.4739 111.976 89.7062 111.694C89.9851 111.412 90.078 111.082 90.078 110.706V104.776C90.078 103.976 90.3104 103.318 90.7751 102.8C91.2398 102.282 91.9369 102.047 92.7734 102.047C93.61 102.047 94.1676 102.282 94.493 102.753C94.8183 103.224 95.0042 103.882 95.0042 104.776V110.706C95.0042 111.129 95.1436 111.459 95.3759 111.694C95.6548 111.976 95.9801 112.118 96.3519 112.118C96.7701 112.118 97.0954 111.976 97.3278 111.694C97.6066 111.412 97.6996 111.082 97.6996 110.706V104.776C97.6996 103.129 97.4208 101.859 96.8166 100.918C96.3519 99.9765 95.283 99.5059 93.7959 99.5059ZM110.154 100.306C109.318 99.7412 108.342 99.5059 107.32 99.5059C106.622 99.5059 105.925 99.6941 105.275 100.024C104.624 100.353 104.113 100.776 103.741 101.247V101.153C103.741 100.729 103.602 100.4 103.369 100.165C103.09 99.8824 102.765 99.7412 102.393 99.7412C101.975 99.7412 101.65 99.8824 101.417 100.165C101.139 100.447 101.046 100.776 101.046 101.153V115.318C101.046 115.741 101.185 116.071 101.417 116.353C101.696 116.635 102.022 116.729 102.393 116.729C102.812 116.729 103.137 116.588 103.369 116.306C103.648 116.024 103.741 115.694 103.741 115.318V110.8C104.159 111.224 104.717 111.6 105.368 111.882C106.018 112.165 106.715 112.353 107.412 112.353C108.435 112.353 109.364 112.071 110.201 111.553C111.037 110.988 111.688 110.235 112.199 109.247C112.664 108.259 112.943 107.176 112.943 105.906C112.943 104.682 112.71 103.553 112.199 102.612C111.688 101.624 110.991 100.871 110.154 100.306ZM109.364 108.682C108.76 109.435 107.924 109.812 106.948 109.812C105.972 109.812 105.135 109.435 104.531 108.682C103.927 107.929 103.602 107.035 103.602 105.906C103.602 104.776 103.927 103.882 104.531 103.129C105.135 102.376 105.972 102.047 106.948 102.047C107.924 102.047 108.76 102.424 109.364 103.129C109.968 103.882 110.294 104.776 110.294 105.906C110.294 106.988 109.968 107.929 109.364 108.682ZM121.912 99.5059C121.122 99.5059 120.425 99.6941 119.821 100.118C119.17 100.494 118.659 100.965 118.241 101.529V96.4C118.241 95.9765 118.101 95.6471 117.869 95.4118C117.59 95.1294 117.265 94.9883 116.893 94.9883C116.475 94.9883 116.149 95.1294 115.917 95.4118C115.638 95.6941 115.545 96.0235 115.545 96.4V110.706C115.545 111.129 115.685 111.459 115.917 111.694C116.196 111.976 116.521 112.118 116.893 112.118C117.311 112.118 117.637 111.976 117.869 111.694C118.148 111.412 118.241 111.082 118.241 110.706V104.776C118.241 103.976 118.473 103.318 118.938 102.8C119.403 102.282 120.1 102.047 120.936 102.047C121.773 102.047 122.33 102.282 122.656 102.753C122.981 103.224 123.167 103.882 123.167 104.776V110.706C123.167 111.129 123.306 111.459 123.539 111.694C123.817 111.976 124.143 112.118 124.515 112.118C124.886 112.118 125.258 111.976 125.49 111.694C125.769 111.412 125.862 111.082 125.862 110.706V104.776C125.862 103.129 125.583 101.859 124.979 100.918C124.468 99.9765 123.446 99.5059 121.912 99.5059ZM139.061 99.5059C138.642 99.5059 138.317 99.6471 138.085 99.9294C137.806 100.212 137.713 100.541 137.713 100.918C137.295 100.494 136.737 100.165 136.086 99.8824C135.436 99.6 134.785 99.4588 134.042 99.4588C133.019 99.4588 132.09 99.7412 131.253 100.259C130.417 100.824 129.766 101.576 129.255 102.565C128.79 103.553 128.511 104.635 128.511 105.906C128.511 107.129 128.744 108.259 129.255 109.2C129.766 110.188 130.417 110.941 131.253 111.459C132.09 112.024 133.066 112.259 134.088 112.259C134.785 112.259 135.482 112.118 136.133 111.788C136.783 111.459 137.295 111.082 137.666 110.659C137.666 111.082 137.806 111.412 138.085 111.647C138.317 111.929 138.642 112.024 139.061 112.024C139.479 112.024 139.804 111.882 140.037 111.6C140.315 111.318 140.408 110.988 140.408 110.612V100.918C140.408 100.494 140.269 100.165 140.037 99.8824C139.758 99.6 139.432 99.5059 139.061 99.5059ZM136.876 108.682C136.272 109.435 135.436 109.765 134.46 109.765C133.484 109.765 132.647 109.388 132.043 108.682C131.439 107.929 131.114 107.035 131.114 105.906C131.114 104.776 131.439 103.882 132.043 103.129C132.647 102.376 133.484 102 134.46 102C135.436 102 136.272 102.376 136.876 103.129C137.481 103.882 137.806 104.776 137.806 105.906C137.806 107.035 137.481 107.929 136.876 108.682ZM151.376 104.212C150.679 103.882 149.796 103.553 148.727 103.224C147.472 102.8 146.543 102.376 145.846 101.906C145.195 101.435 144.823 100.729 144.823 99.8353C144.823 98.9883 145.195 98.2824 145.892 97.8118C146.589 97.2941 147.519 97.0588 148.588 97.0588C149.331 97.0588 150.028 97.2 150.725 97.5294C151.422 97.8588 151.934 98.2353 152.352 98.753C152.445 98.8471 152.584 98.8941 152.724 98.8941C152.91 98.8941 153.095 98.8 153.235 98.6588C153.374 98.5177 153.467 98.3765 153.467 98.1883C153.467 98 153.374 97.7647 153.142 97.5294C152.677 96.9647 152.027 96.4941 151.19 96.1647C150.354 95.8353 149.517 95.6941 148.588 95.6941C147.565 95.6941 146.682 95.8824 145.892 96.2588C145.102 96.6353 144.498 97.1059 144.08 97.7647C143.661 98.3765 143.429 99.1294 143.429 99.9294C143.429 100.824 143.615 101.576 144.033 102.188C144.451 102.8 144.963 103.271 145.66 103.6C146.31 103.976 147.147 104.259 148.123 104.588C149.006 104.871 149.749 105.153 150.354 105.435C150.911 105.718 151.376 106.094 151.748 106.518C152.12 106.941 152.305 107.506 152.305 108.165C152.305 109.012 151.934 109.718 151.237 110.235C150.493 110.753 149.61 111.035 148.495 111.035C146.729 111.035 145.242 110.376 144.033 109.059C143.894 108.918 143.708 108.824 143.522 108.824C143.336 108.824 143.197 108.918 143.011 109.059C142.871 109.2 142.778 109.388 142.778 109.576C142.778 109.812 142.871 110 143.057 110.141C143.847 110.941 144.684 111.506 145.52 111.882C146.357 112.259 147.333 112.447 148.448 112.447C149.471 112.447 150.354 112.259 151.19 111.882C151.98 111.506 152.631 110.988 153.049 110.376C153.514 109.718 153.7 109.012 153.7 108.259C153.7 107.224 153.467 106.424 153.049 105.812C152.631 105.012 152.073 104.541 151.376 104.212ZM164.714 100.824C163.831 100.306 162.855 100.024 161.786 100.024C160.717 100.024 159.741 100.306 158.858 100.824C157.975 101.341 157.278 102.094 156.767 103.035C156.256 103.976 156.023 105.012 156.023 106.188C156.023 107.365 156.256 108.4 156.767 109.341C157.278 110.282 157.975 111.035 158.858 111.553C159.741 112.071 160.717 112.353 161.786 112.353C162.855 112.353 163.831 112.071 164.714 111.553C165.597 111.035 166.294 110.282 166.805 109.341C167.316 108.4 167.549 107.365 167.549 106.188C167.549 105.012 167.316 103.976 166.805 103.035C166.294 102.094 165.597 101.341 164.714 100.824ZM165.597 108.682C165.225 109.435 164.667 110 164.017 110.424C163.32 110.847 162.576 111.035 161.786 111.035C160.949 111.035 160.206 110.8 159.555 110.376C158.905 109.953 158.347 109.388 157.975 108.635C157.603 107.882 157.371 107.082 157.371 106.141C157.371 105.2 157.557 104.4 157.975 103.647C158.347 102.894 158.905 102.329 159.555 101.906C160.206 101.482 160.949 101.247 161.786 101.247C162.622 101.247 163.366 101.482 164.017 101.906C164.714 102.329 165.225 102.894 165.597 103.647C165.968 104.4 166.154 105.2 166.154 106.141C166.201 107.082 166.015 107.929 165.597 108.682ZM175.356 95.2706C174.984 95.1294 174.612 95.0824 174.148 95.0824C173.218 95.0824 172.475 95.3647 171.917 95.8824C171.359 96.4 171.081 97.153 171.081 98.1412V100.541H169.407C169.222 100.541 169.082 100.588 168.943 100.729C168.803 100.824 168.757 101.012 168.757 101.2C168.757 101.388 168.803 101.529 168.943 101.671C169.082 101.812 169.222 101.859 169.407 101.859H171.081V111.412C171.081 111.6 171.127 111.788 171.266 111.929C171.406 112.071 171.545 112.118 171.778 112.118C171.964 112.118 172.149 112.071 172.289 111.929C172.428 111.788 172.475 111.647 172.475 111.412V101.812H175.031C175.217 101.812 175.356 101.765 175.495 101.624C175.635 101.482 175.681 101.341 175.681 101.153C175.681 100.965 175.635 100.824 175.495 100.682C175.356 100.541 175.217 100.494 175.031 100.494H172.475V98.0941C172.475 97.5294 172.614 97.0588 172.893 96.7294C173.172 96.4 173.544 96.2588 174.008 96.2588C174.194 96.2588 174.473 96.3059 174.798 96.4C174.984 96.4941 175.17 96.4941 175.31 96.4941C175.449 96.4941 175.588 96.4471 175.728 96.3059C175.867 96.1647 175.914 96.0235 175.914 95.8353C175.867 95.6 175.728 95.4118 175.356 95.2706ZM183.349 101.624C183.535 101.624 183.675 101.576 183.814 101.435C183.954 101.341 184 101.153 184 100.965C184 100.776 183.954 100.635 183.814 100.494C183.675 100.353 183.535 100.306 183.349 100.306H181.072V97.7647C181.072 97.5765 181.026 97.3883 180.886 97.2471C180.747 97.1059 180.607 97.0588 180.375 97.0588C180.189 97.0588 180.003 97.1059 179.864 97.2471C179.725 97.3883 179.678 97.5294 179.678 97.7647V100.353H178.005C177.819 100.353 177.68 100.4 177.54 100.541C177.401 100.682 177.354 100.824 177.354 101.012C177.354 101.2 177.401 101.341 177.54 101.482C177.68 101.624 177.819 101.671 178.005 101.671H179.678V109.482C179.678 110.329 179.817 110.941 180.143 111.318C180.422 111.694 180.747 111.929 181.072 112.024C181.398 112.118 181.769 112.118 182.188 112.118C182.513 112.118 182.792 112.024 183.071 111.882C183.303 111.741 183.442 111.553 183.442 111.318C183.442 111.176 183.396 111.035 183.303 110.894C183.21 110.8 183.071 110.706 182.931 110.706C182.838 110.706 182.745 110.706 182.606 110.753C182.466 110.8 182.373 110.8 182.281 110.8C181.909 110.8 181.63 110.706 181.444 110.471C181.212 110.282 181.119 109.859 181.119 109.294V101.624H183.349Z" fill="#4C4C4C"/>
</g>
<defs>
<linearGradient id="paint0_linear" x1="22.3177" y1="117.833" x2="49.912" y2="90.5823" gradientUnits="userSpaceOnUse">
<stop stop-color="#0090C6"/>
<stop offset="1" stop-color="#1EDDD6"/>
</linearGradient>
<clipPath id="clip0">
<rect width="168" height="36" fill="white" transform="translate(16 86)"/>
</clipPath>
</defs>
</svg>
